<?xml version="1.0" standalone="no"?>
<!DOCTYPE svg PUBLIC "-//W3C//DTD SVG 20010904//EN"
 "http://www.w3.org/TR/2001/REC-SVG-20010904/DTD/svg10.dtd">
<svg version="1.0" xmlns="http://www.w3.org/2000/svg"
 width="225.000000pt" height="225.000000pt" viewBox="0 0 225.000000 225.000000"
 preserveAspectRatio="xMidYMid meet">
<metadata>
Created by potrace 1.16, written by Peter Selinger 2001-2019
</metadata>
<g transform="translate(0.000000,225.000000) scale(0.100000,-0.100000)"
fill="#000000" stroke="none">
<path d="M1075 1739 c-409 -31 -807 -182 -982 -372 -71 -77 -98 -155 -87 -251
16 -132 166 -242 426 -311 91 -24 218 -46 218 -37 0 2 -19 25 -41 50 -63 70
-79 113 -79 209 0 100 17 155 76 244 132 200 475 404 784 467 36 8 19 10 -85
9 -71 0 -175 -3 -230 -8z"/>
<path d="M777 1107 c-59 -177 -107 -326 -107 -330 0 -4 62 -6 137 -5 l137 3
39 123 38 122 70 0 c38 0 69 -1 69 -3 0 -3 -56 -197 -65 -226 -6 -21 -6 -22
131 -19 l137 3 104 310 c57 171 106 318 109 328 5 16 -6 17 -133 17 l-139 0
-38 -125 -39 -125 -74 0 c-86 0 -83 -17 -27 140 19 52 34 98 34 103 0 4 -62 7
-138 7 l-137 0 -108 -323z"/>
<path d="M1629 1367 c22 -29 49 -73 60 -97 43 -95 17 -235 -70 -364 -110 -165
-292 -285 -603 -396 l-158 -57 47 -6 c137 -19 325 -1 575 54 159 35 255 67
366 118 160 75 271 159 333 252 136 203 24 380 -314 496 -85 29 -194 53 -241
53 l-35 0 40 -53z"/>
</g>
</svg>
